<svg width="400" height="89.94082840236686" xmlns="http://www.w3.org/2000/svg">

 <g>
  <title>background</title>
  <rect fill="none" id="canvas_background" height="402" width="582" y="-1" x="-1"/>
 </g>
 <g>
  <title>Layer 1</title>
  <g id="svgg">
   <path fill-rule="evenodd" fill="#242729" d="m279.508,8.19c-0.5,0.083 -0.95,0.214 -1,0.293c-0.05,0.078 -0.335,0.195 -0.633,0.259c-0.298,0.065 -0.542,0.181 -0.542,0.258c0,0.077 -0.225,0.19 -0.5,0.25c-0.275,0.06 -0.5,0.179 -0.5,0.263c0,0.085 -0.093,0.155 -0.208,0.156c-0.52,0.005 -2.791,2.275 -2.791,2.789c-0.001,0.115 -0.068,0.209 -0.149,0.209c-0.082,0 -0.198,0.196 -0.258,0.436c-0.061,0.241 -0.209,0.536 -0.329,0.656c-0.12,0.12 -0.27,0.54 -0.333,0.933c-0.063,0.393 -0.204,0.77 -0.315,0.839c-0.263,0.162 -0.286,5.923 -0.024,6.1c0.097,0.065 0.278,0.55 0.402,1.077c0.124,0.527 0.288,0.959 0.365,0.959c0.077,0 0.14,0.107 0.14,0.238c0,0.131 0.094,0.337 0.209,0.458c0.114,0.121 0.316,0.429 0.447,0.684c0.292,0.565 1.675,1.953 1.946,1.953c0.108,0 0.239,0.113 0.292,0.25c0.053,0.137 0.204,0.25 0.337,0.25c0.133,0 0.267,0.059 0.297,0.132c0.113,0.269 1.243,0.844 1.889,0.961c0.367,0.067 0.72,0.205 0.786,0.306c0.159,0.247 7.925,0.259 8.095,0.012c0.066,-0.095 0.596,-0.268 1.18,-0.385c0.583,-0.118 1.183,-0.273 1.333,-0.345c0.15,-0.073 0.554,-0.267 0.898,-0.433l0.625,-0.3l0,-5.474l0,-5.474l-4.084,0l-4.083,0l0,2.25l0,2.25l1.75,0l1.75,0l0,1.481l0,1.482l-0.571,0.107c-0.314,0.059 -0.602,0.199 -0.639,0.31c-0.091,0.273 -4.747,0.29 -4.921,0.017c-0.065,-0.102 -0.298,-0.241 -0.517,-0.31c-0.705,-0.22 -2.519,-2.242 -2.519,-2.807c0,-0.139 -0.093,-0.283 -0.208,-0.322c-0.278,-0.092 -0.299,-4.579 -0.022,-4.756c0.102,-0.065 0.242,-0.3 0.312,-0.523c0.146,-0.469 0.261,-0.622 1.2,-1.604c0.384,-0.402 0.89,-0.778 1.125,-0.837c0.235,-0.059 0.427,-0.173 0.427,-0.254c0,-0.081 0.3,-0.195 0.666,-0.253c0.367,-0.059 0.667,-0.172 0.667,-0.252c0,-0.08 0.6,-0.146 1.333,-0.146c0.734,0 1.334,0.066 1.334,0.146c0,0.08 0.243,0.193 0.541,0.251c0.625,0.121 1.625,0.618 1.625,0.808c0,0.071 0.112,0.129 0.249,0.129c0.137,0 0.342,0.15 0.457,0.333c0.114,0.183 0.271,0.333 0.347,0.333c0.178,0 2.614,-2.406 2.614,-2.581c0,-0.072 0.188,-0.304 0.417,-0.517c0.53,-0.491 0.524,-0.687 -0.042,-1.179c-0.757,-0.658 -0.829,-0.705 -1.277,-0.817c-0.237,-0.06 -0.431,-0.169 -0.431,-0.244c0,-0.074 -0.244,-0.187 -0.542,-0.251c-0.298,-0.064 -0.623,-0.181 -0.721,-0.26c-0.54,-0.433 -5.865,-0.631 -7.896,-0.294m14.325,5.477c0,3.666 0.059,5.666 0.167,5.666c0.107,0 0.167,1.611 0.167,4.5l0,4.5l7.166,0l7.167,0l0,-2.25l0,-2.25l-4.833,0l-4.834,0l0,-1.833l0,-1.833l4.334,0l4.333,0l0,-2.25l0,-2.25l-4.333,0l-4.334,0l0,-1.667l0,-1.667l4.584,0l4.583,0l0,-2.166l0,-2.167l-7.083,0l-7.084,0l0,5.667m17.335,2.875c0,4.698 0.049,9.275 0.108,10.171l0.108,1.629l2.35,-0.046l2.349,-0.046l0.045,-3.875l0.045,-3.875l0.895,0c0.817,0 0.905,0.037 1,0.417c0.058,0.229 0.173,0.416 0.255,0.416c0.083,0 0.2,0.225 0.26,0.5c0.061,0.275 0.179,0.5 0.264,0.5c0.084,0 0.153,0.103 0.153,0.228c0,0.125 0.145,0.412 0.323,0.638c0.178,0.226 0.373,0.611 0.435,0.856c0.061,0.245 0.178,0.445 0.26,0.445c0.082,0 0.149,0.107 0.149,0.238c0,0.131 0.101,0.339 0.225,0.463c0.123,0.124 0.315,0.498 0.425,0.832c0.11,0.334 0.309,0.697 0.442,0.807c0.132,0.111 0.241,0.304 0.241,0.43c0,0.127 0.067,0.23 0.149,0.23c0.081,0 0.195,0.188 0.253,0.417l0.104,0.416l2.831,0c2.777,0 2.83,-0.006 2.83,-0.355c0,-0.318 -0.567,-1.431 -0.838,-1.645c-0.058,-0.046 -0.212,-0.327 -0.341,-0.625c-0.13,-0.298 -0.293,-0.541 -0.362,-0.541c-0.069,0 -0.126,-0.115 -0.126,-0.256c0,-0.14 -0.108,-0.296 -0.24,-0.347c-0.132,-0.05 -0.288,-0.31 -0.346,-0.577c-0.059,-0.267 -0.196,-0.542 -0.306,-0.611c-0.109,-0.069 -0.29,-0.313 -0.402,-0.543c-0.254,-0.519 -0.563,-1.003 -0.82,-1.285c-0.109,-0.119 -0.25,-0.381 -0.314,-0.583c-0.064,-0.201 -0.2,-0.461 -0.302,-0.576c-0.635,-0.717 -0.637,-0.722 -0.188,-0.722c1.542,0 3.58,-2.156 3.584,-3.792c0,-0.206 0.076,-0.375 0.167,-0.375c0.098,0 0.167,-0.556 0.167,-1.333c0,-0.778 -0.069,-1.334 -0.167,-1.334c-0.091,0 -0.166,-0.213 -0.166,-0.475c0,-0.593 -0.316,-1.525 -0.517,-1.525c-0.082,0 -0.15,-0.107 -0.15,-0.239c0,-0.28 -1.159,-1.424 -1.444,-1.426c-0.107,-0.001 -0.22,-0.058 -0.25,-0.126c-0.345,-0.775 -2.428,-1.04 -8.181,-1.041l-4.958,-0.001l0.001,8.542m-191.501,-2.407c0,3.196 0.049,7.848 0.11,10.338l0.11,4.527l0.473,0c0.26,0 0.473,-0.075 0.473,-0.167c0,-0.101 0.75,-0.166 1.917,-0.166l1.917,0l0,-4.25l0,-4.25l4,0l4,0l0,4.25l0,4.25l2.5,0l2.5,0l0,-10.167l0,-10.167l-2.5,0l-2.5,0l0,3.667l0,3.667l-3.997,0l-3.997,0l-0.045,-3.625l-0.045,-3.625l-2.458,-0.046l-2.458,-0.047l0,5.811m20.666,-5.476c0,0.412 0.342,1.174 0.527,1.174c0.077,0 0.14,0.115 0.14,0.256c0,0.14 0.112,0.298 0.25,0.351c0.137,0.052 0.25,0.164 0.25,0.248c0,0.171 0.802,1.442 1.125,1.782c0.114,0.121 0.208,0.328 0.208,0.459c0,0.131 0.077,0.238 0.171,0.238c0.094,0 0.242,0.187 0.329,0.416c0.087,0.23 0.236,0.417 0.33,0.417c0.093,0 0.17,0.097 0.17,0.216c0,0.119 0.113,0.363 0.25,0.542c0.476,0.619 1.084,1.591 1.084,1.732c0,0.077 0.112,0.184 0.25,0.237c0.137,0.053 0.25,0.211 0.25,0.351c0,0.14 0.066,0.255 0.146,0.255c0.081,0 0.24,0.225 0.354,0.5c0.114,0.275 0.273,0.5 0.353,0.5c0.081,0 0.147,0.115 0.147,0.256c0,0.14 0.112,0.298 0.25,0.351c0.137,0.052 0.25,0.196 0.25,0.32c0,0.123 0.131,0.297 0.291,0.386c0.265,0.148 0.297,0.578 0.341,4.592l0.05,4.429l2.492,0l2.492,0l0,-3.584c0,-2.277 -0.06,-3.583 -0.166,-3.583c-0.277,0 -0.2,-1.285 0.083,-1.394c0.137,-0.052 0.25,-0.21 0.25,-0.351c0,-0.14 0.066,-0.255 0.146,-0.255c0.081,0 0.24,-0.225 0.354,-0.5c0.114,-0.275 0.261,-0.5 0.326,-0.5c0.066,0 0.328,-0.412 0.583,-0.917c0.255,-0.504 0.53,-0.916 0.611,-0.916c0.081,0 0.147,-0.109 0.147,-0.242c0,-0.133 0.093,-0.302 0.208,-0.375c0.201,-0.129 0.551,-0.676 0.991,-1.55c0.116,-0.229 0.306,-0.477 0.422,-0.55c0.117,-0.073 0.212,-0.242 0.212,-0.375c0,-0.133 0.075,-0.242 0.167,-0.242c0.091,0 0.166,-0.08 0.166,-0.177c0,-0.098 0.188,-0.424 0.417,-0.725c0.229,-0.3 0.417,-0.626 0.417,-0.725c0,-0.098 0.056,-0.203 0.125,-0.234c0.192,-0.085 0.875,-1.103 0.875,-1.304c0,-0.098 0.105,-0.219 0.235,-0.269c0.129,-0.049 0.285,-0.29 0.346,-0.534c0.062,-0.245 0.19,-0.494 0.287,-0.553c0.554,-0.343 -0.214,-0.479 -2.71,-0.479c-2.739,0 -3.325,0.139 -3.325,0.787c0,0.118 -0.061,0.213 -0.136,0.213c-0.074,0 -0.238,0.263 -0.364,0.584c-0.126,0.32 -0.29,0.583 -0.364,0.583c-0.075,0 -0.136,0.101 -0.136,0.224c0,0.124 -0.15,0.398 -0.333,0.609c-0.184,0.212 -0.334,0.474 -0.334,0.584c0,0.109 -0.15,0.372 -0.333,0.583c-0.183,0.211 -0.333,0.485 -0.333,0.609c0,0.123 -0.066,0.224 -0.146,0.224c-0.08,0 -0.362,0.449 -0.625,0.998c-0.451,0.938 -0.896,1.312 -0.896,0.752c0,-0.137 -0.075,-0.25 -0.167,-0.25c-0.091,0 -0.166,-0.107 -0.166,-0.238c0,-0.131 -0.107,-0.345 -0.238,-0.475c-0.131,-0.131 -0.354,-0.493 -0.497,-0.804c-0.289,-0.632 -0.625,-1.189 -0.794,-1.318c-0.061,-0.046 -0.162,-0.285 -0.223,-0.529c-0.062,-0.245 -0.21,-0.483 -0.331,-0.529c-0.121,-0.046 -0.27,-0.314 -0.332,-0.595c-0.061,-0.282 -0.181,-0.512 -0.265,-0.512c-0.085,0 -0.154,-0.115 -0.154,-0.255c0,-0.14 -0.105,-0.296 -0.235,-0.345c-0.129,-0.05 -0.28,-0.273 -0.336,-0.495l-0.102,-0.405l-2.913,0c-2.779,0 -2.914,0.015 -2.914,0.326m22.445,-0.215c-0.061,0.062 -0.111,4.637 -0.111,10.167l0,10.056l2.5,0l2.5,0l0,-3.834l0,-3.833l2.75,0c1.512,0 2.75,-0.065 2.75,-0.143c0,-0.079 0.388,-0.19 0.862,-0.246c0.474,-0.056 0.906,-0.169 0.958,-0.251c0.053,-0.082 0.275,-0.204 0.494,-0.273c0.345,-0.108 1.312,-0.996 1.981,-1.82c0.116,-0.143 0.259,-0.506 0.318,-0.805c0.058,-0.3 0.184,-0.597 0.281,-0.66c0.252,-0.165 0.221,-4.18 -0.034,-4.265c-0.106,-0.036 -0.194,-0.236 -0.194,-0.445c0,-0.209 -0.15,-0.571 -0.333,-0.804c-0.183,-0.233 -0.333,-0.489 -0.333,-0.569c0,-0.22 -1.002,-1.052 -1.267,-1.052c-0.129,0 -0.233,-0.074 -0.233,-0.164c0,-0.09 -0.188,-0.21 -0.417,-0.268c-0.229,-0.057 -0.417,-0.168 -0.417,-0.245c0,-0.077 -0.45,-0.191 -1,-0.253c-0.55,-0.062 -1,-0.179 -1,-0.259c0,-0.167 -9.888,-0.201 -10.055,-0.034m18,0c-0.182,0.183 -0.13,3.223 0.055,3.223c0.109,0 0.167,2.944 0.167,8.5l0,8.5l7.167,0l7.166,0l0,-2.25l0,-2.25l-4.833,0l-4.833,0l0,-1.75l0,-1.75l4.416,0l4.417,0l0,-2.25l0,-2.25l-4.417,0l-4.416,0l0,-1.667l0,-1.667l4.583,0l4.583,0l0,-2.25l0,-2.25l-6.972,0c-3.835,0 -7.022,0.05 -7.083,0.111m17.296,0.072c-0.062,0.1 -0.057,4.675 0.011,10.166l0.124,9.985l2.395,0l2.396,0l0,-3.834l0,-3.833l0.845,0c0.923,0 1.14,0.141 1.474,0.958c0.122,0.298 0.281,0.542 0.355,0.542c0.073,0 0.182,0.225 0.243,0.5c0.06,0.275 0.173,0.5 0.25,0.5c0.077,0 0.189,0.225 0.25,0.5c0.06,0.275 0.167,0.5 0.236,0.5c0.07,0 0.226,0.3 0.347,0.667c0.121,0.366 0.278,0.666 0.349,0.666c0.071,0 0.181,0.166 0.245,0.368c0.064,0.202 0.219,0.469 0.345,0.595c0.125,0.125 0.228,0.335 0.228,0.466c0,0.131 0.064,0.238 0.142,0.238c0.079,0 0.213,0.244 0.298,0.542l0.155,0.541l2.869,0.046l2.869,0.046l0,-0.409c0,-0.225 -0.098,-0.508 -0.219,-0.629c-0.12,-0.121 -0.326,-0.464 -0.457,-0.762c-0.131,-0.298 -0.295,-0.542 -0.365,-0.542c-0.069,0 -0.126,-0.115 -0.126,-0.255c0,-0.14 -0.108,-0.297 -0.239,-0.347c-0.132,-0.051 -0.288,-0.31 -0.347,-0.577c-0.058,-0.267 -0.196,-0.542 -0.305,-0.611c-0.11,-0.07 -0.291,-0.314 -0.403,-0.543c-0.221,-0.453 -0.573,-1.034 -0.706,-1.167c-0.046,-0.046 -0.196,-0.308 -0.333,-0.583c-0.138,-0.275 -0.325,-0.591 -0.417,-0.703c-0.091,-0.111 -0.251,-0.304 -0.354,-0.429c-0.487,-0.588 -0.43,-0.908 0.183,-1.023c0.323,-0.06 0.588,-0.163 0.588,-0.229c0,-0.065 0.236,-0.223 0.525,-0.35c0.779,-0.345 1.144,-0.776 1.849,-2.183c0.445,-0.887 0.579,-4.988 0.168,-5.125c-0.115,-0.038 -0.209,-0.198 -0.209,-0.355c0,-0.508 -1.467,-2.186 -1.911,-2.186c-0.14,0 -0.255,-0.07 -0.255,-0.156c0,-0.085 -0.169,-0.208 -0.375,-0.272c-0.207,-0.065 -0.42,-0.186 -0.474,-0.271c-0.055,-0.084 -0.523,-0.197 -1.042,-0.251c-0.518,-0.053 -0.943,-0.161 -0.943,-0.24c0,-0.221 -10.122,-0.183 -10.259,0.039m19.093,9.98l0,10.171l6.5,0l6.5,0l0,-2.25l0,-2.25l-3.999,0l-3.998,0l-0.043,-7.875l-0.044,-7.875l-2.458,-0.046l-2.458,-0.047l0,10.172m15.723,-4.135c0.06,3.315 0.11,7.89 0.11,10.166l0,4.14l7.25,0l7.25,0l0,-2.25l0,-2.25l-4.833,0l-4.834,0l0,-1.75l0,-1.75l4.334,0l4.333,0l0,-2.25l0,-2.25l-4.333,0l-4.334,0l0,-1.667l0,-1.667l4.584,0l4.583,0l0,-2.25l0,-2.25l-7.11,0l-7.111,0l0.111,6.028m17.221,-5.917c-0.186,0.187 -0.132,14.19 0.056,14.306c0.101,0.062 0.166,1.256 0.166,3.024l0,2.921l5.292,-0.068c5.271,-0.068 7.168,-0.3 7.708,-0.944c0.046,-0.055 0.453,-0.287 0.904,-0.516c0.906,-0.461 3.096,-2.431 3.096,-2.786c0,-0.124 0.108,-0.266 0.24,-0.317c0.132,-0.05 0.288,-0.311 0.347,-0.578c0.058,-0.267 0.17,-0.486 0.247,-0.486c0.077,0 0.193,-0.244 0.257,-0.542c0.065,-0.298 0.202,-0.595 0.305,-0.66c0.262,-0.166 0.26,-6.324 -0.001,-6.647c-0.104,-0.129 -0.242,-0.478 -0.305,-0.776c-0.064,-0.298 -0.169,-0.542 -0.233,-0.542c-0.064,0 -0.209,-0.206 -0.322,-0.458c-0.113,-0.252 -0.299,-0.616 -0.414,-0.808c-0.292,-0.488 -1.883,-2.067 -2.082,-2.067c-0.091,0 -0.258,-0.112 -0.371,-0.249c-0.114,-0.137 -0.498,-0.337 -0.854,-0.443c-0.356,-0.107 -0.647,-0.251 -0.647,-0.32c0,-0.069 -0.3,-0.176 -0.667,-0.238c-0.366,-0.062 -0.666,-0.176 -0.666,-0.255c0,-0.078 -0.527,-0.193 -1.171,-0.257c-0.643,-0.063 -1.21,-0.18 -1.26,-0.26c-0.103,-0.168 -9.458,-0.2 -9.625,-0.034m-170.278,10.617c0,6.923 0.009,7.106 0.324,7.106c0.178,0 0.364,-0.067 0.415,-0.148c0.05,-0.081 0.354,-0.197 0.676,-0.258c0.322,-0.06 0.585,-0.172 0.585,-0.248c0,-0.076 0.225,-0.183 0.5,-0.238c0.275,-0.055 0.834,-0.252 1.241,-0.437c0.408,-0.186 0.82,-0.338 0.917,-0.338c0.097,0 0.176,-0.066 0.176,-0.146c0,-0.08 0.225,-0.191 0.5,-0.246c0.275,-0.055 0.833,-0.252 1.241,-0.437c0.407,-0.186 0.857,-0.338 1,-0.338c0.142,0 0.259,-0.071 0.259,-0.159c0,-0.087 0.262,-0.208 0.583,-0.268c0.321,-0.061 0.583,-0.169 0.583,-0.241c0,-0.073 0.375,-0.222 0.834,-0.332c0.458,-0.11 0.833,-0.259 0.833,-0.331c0,-0.072 0.263,-0.181 0.583,-0.241c0.321,-0.06 0.584,-0.174 0.584,-0.252c0,-0.078 0.375,-0.232 0.833,-0.342c0.458,-0.11 0.833,-0.259 0.833,-0.332c0,-0.072 0.263,-0.18 0.584,-0.241c0.32,-0.06 0.583,-0.181 0.583,-0.268c0,-0.088 0.182,-0.159 0.405,-0.159c0.222,0 0.504,-0.1 0.626,-0.221c0.121,-0.122 0.445,-0.266 0.72,-0.322c1.621,-0.325 1.956,-0.983 0.666,-1.308c-0.413,-0.104 -0.75,-0.248 -0.75,-0.321c0,-0.073 -0.3,-0.183 -0.667,-0.245c-0.367,-0.062 -0.667,-0.174 -0.667,-0.248c0,-0.074 -0.375,-0.225 -0.833,-0.335c-0.458,-0.11 -0.833,-0.268 -0.833,-0.35c0,-0.083 -0.132,-0.151 -0.292,-0.151c-0.16,-0.001 -0.501,-0.111 -0.757,-0.244c-0.256,-0.134 -0.725,-0.292 -1.042,-0.351c-0.317,-0.059 -0.576,-0.167 -0.576,-0.24c0,-0.072 -0.375,-0.221 -0.833,-0.331c-0.459,-0.11 -0.834,-0.259 -0.834,-0.331c0,-0.073 -0.262,-0.181 -0.583,-0.241c-0.321,-0.061 -0.583,-0.173 -0.583,-0.25c0,-0.078 -0.278,-0.193 -0.617,-0.257c-0.339,-0.063 -0.768,-0.222 -0.954,-0.351c-0.185,-0.13 -0.451,-0.237 -0.591,-0.238c-0.14,0 -0.464,-0.11 -0.72,-0.243c-0.256,-0.134 -0.725,-0.292 -1.042,-0.351c-0.317,-0.06 -0.576,-0.166 -0.576,-0.237c0,-0.07 -0.356,-0.218 -0.79,-0.327c-0.434,-0.109 -0.832,-0.268 -0.884,-0.352c-0.052,-0.084 -0.447,-0.201 -0.877,-0.26l-0.783,-0.107l0,7.106m240.965,-6.632c0.065,0.098 0.25,0.227 0.41,0.286c0.161,0.059 0.292,0.223 0.292,0.363c0,0.14 0.075,0.255 0.167,0.255c0.091,0 0.166,0.348 0.166,0.773c0,0.78 -0.052,0.86 -1.148,1.76c-0.134,0.11 -1.133,0.223 -2.375,0.268l-2.143,0.077l0,-2.035l0,-2.035l2.256,0.054c1.361,0.033 2.304,0.126 2.375,0.234m-291.131,6.76l0,6.688l0.69,-0.092c0.38,-0.051 0.736,-0.161 0.792,-0.243c0.056,-0.083 0.457,-0.248 0.893,-0.368c0.435,-0.119 0.791,-0.274 0.791,-0.344c0,-0.069 0.263,-0.175 0.584,-0.236c0.32,-0.06 0.583,-0.175 0.583,-0.255c0,-0.08 0.244,-0.199 0.542,-0.265c0.298,-0.065 0.803,-0.258 1.122,-0.43c0.32,-0.171 0.713,-0.311 0.875,-0.311c0.162,0 0.294,-0.069 0.294,-0.153c0,-0.084 0.225,-0.203 0.5,-0.263c0.275,-0.061 0.5,-0.17 0.5,-0.243c0,-0.073 0.225,-0.177 0.5,-0.232c0.275,-0.055 0.834,-0.252 1.241,-0.438c0.408,-0.185 0.82,-0.337 0.917,-0.337c0.097,0 0.176,-0.06 0.176,-0.132c0,-0.073 0.337,-0.223 0.75,-0.333c0.412,-0.11 0.75,-0.276 0.75,-0.368c0,-0.092 0.154,-0.167 0.342,-0.167c0.188,0 0.619,-0.146 0.958,-0.324c0.844,-0.443 2.163,-1.01 2.351,-1.01c0.298,0 1.18,-0.585 1.181,-0.784c0.001,-0.11 -0.262,-0.25 -0.582,-0.31c-0.321,-0.06 -0.584,-0.171 -0.584,-0.247c0,-0.076 -0.337,-0.189 -0.75,-0.251c-0.412,-0.062 -0.75,-0.173 -0.75,-0.248c0,-0.075 -0.412,-0.228 -0.916,-0.341c-0.504,-0.113 -0.917,-0.264 -0.917,-0.335c0,-0.071 -0.338,-0.181 -0.75,-0.242c-0.413,-0.062 -0.75,-0.176 -0.75,-0.253c0,-0.077 -0.263,-0.189 -0.583,-0.25c-0.321,-0.06 -0.584,-0.166 -0.584,-0.234c0,-0.069 -0.45,-0.221 -1,-0.338c-0.55,-0.117 -1,-0.276 -1,-0.354c0,-0.078 -0.3,-0.19 -0.666,-0.249c-0.367,-0.058 -0.667,-0.165 -0.667,-0.237c0,-0.072 -0.3,-0.181 -0.667,-0.243c-0.366,-0.062 -0.666,-0.174 -0.666,-0.248c0,-0.075 -0.394,-0.228 -0.875,-0.341c-0.482,-0.113 -0.95,-0.263 -1.042,-0.335c-0.092,-0.071 -0.448,-0.182 -0.792,-0.247c-0.343,-0.064 -0.625,-0.174 -0.625,-0.245c0,-0.144 -1.298,-0.501 -1.823,-0.501c-0.341,0 -0.343,0.049 -0.343,6.689m142.292,-6.231c0.038,0.115 0.17,0.209 0.294,0.209c0.38,0 0.914,0.925 0.914,1.584c0,0.843 -0.884,1.743 -1.837,1.871c-0.369,0.049 -0.712,0.155 -0.761,0.234c-0.049,0.079 -0.722,0.144 -1.496,0.144l-1.406,0l0,-2.18l0,-2.181l2.111,0.056c1.5,0.039 2.131,0.115 2.181,0.263m35.8,0.064c1.275,0.637 1.255,3.145 -0.024,3.145c-0.114,0 -0.236,0.086 -0.271,0.192c-0.043,0.128 -0.812,0.22 -2.264,0.272l-2.2,0.08l0,-2.022l0,-2.022l2.023,0c1.732,0 2.126,0.051 2.736,0.355m51.074,-0.044c0,0.08 0.299,0.185 0.664,0.234c0.86,0.115 2.128,0.729 2.722,1.318c0.257,0.256 0.557,0.522 0.666,0.592c0.827,0.533 1.517,4.907 0.844,5.345c-0.098,0.064 -0.232,0.341 -0.299,0.616c-0.138,0.569 -1.682,2.15 -2.282,2.338c-0.219,0.068 -0.437,0.184 -0.485,0.258c-0.152,0.235 -2.186,0.485 -3.955,0.486l-1.708,0.002l0,-5.667l0,-5.667l1.917,0c1.054,0 1.916,0.065 1.916,0.145m-254.5,34.43c0,27.122 -0.022,26.259 0.672,26.259c0.107,0 0.431,0.107 0.72,0.238c1.605,0.727 2.157,0.946 2.608,1.037c0.275,0.055 0.5,0.159 0.5,0.232c0,0.073 0.244,0.186 0.542,0.251c0.298,0.065 0.69,0.221 0.87,0.346c0.181,0.126 0.495,0.229 0.697,0.229c0.202,0 0.48,0.112 0.618,0.25c0.137,0.137 0.388,0.25 0.558,0.25c0.169,0 0.456,0.103 0.637,0.229c0.18,0.125 0.572,0.281 0.87,0.346c0.298,0.065 0.542,0.175 0.542,0.245c0,0.07 0.412,0.226 0.916,0.347c0.505,0.121 0.917,0.279 0.917,0.352c0,0.073 0.263,0.182 0.583,0.242c0.321,0.06 0.584,0.169 0.584,0.241c0,0.072 0.375,0.221 0.833,0.331c0.458,0.11 0.833,0.259 0.833,0.332c0,0.072 0.263,0.18 0.584,0.241c0.32,0.06 0.583,0.181 0.583,0.268c0,0.088 0.132,0.159 0.294,0.159c0.162,0 0.556,0.14 0.875,0.311c0.32,0.172 0.825,0.365 1.123,0.43c0.298,0.066 0.541,0.188 0.541,0.273c0,0.084 0.117,0.153 0.259,0.153c0.143,0 0.603,0.156 1.022,0.347c0.419,0.191 1.015,0.389 1.324,0.439l0.562,0.091l0,-25.852l0,-25.852l-0.417,-0.105c-0.229,-0.057 -0.416,-0.163 -0.416,-0.234c0,-0.072 -0.263,-0.179 -0.584,-0.24c-0.321,-0.06 -0.583,-0.181 -0.583,-0.268c0,-0.088 -0.117,-0.159 -0.259,-0.159c-0.143,0 -0.593,-0.152 -1,-0.338c-0.408,-0.185 -0.966,-0.382 -1.241,-0.437c-0.275,-0.055 -0.5,-0.16 -0.5,-0.233c0,-0.073 -0.244,-0.186 -0.542,-0.25c-0.298,-0.065 -0.689,-0.221 -0.87,-0.347c-0.181,-0.126 -0.468,-0.229 -0.637,-0.229c-0.169,0 -0.421,-0.112 -0.558,-0.25c-0.138,-0.137 -0.416,-0.25 -0.618,-0.25c-0.202,0 -0.515,-0.103 -0.696,-0.228c-0.181,-0.126 -0.573,-0.282 -0.871,-0.347c-0.298,-0.065 -0.541,-0.175 -0.541,-0.245c0,-0.069 -0.413,-0.225 -0.917,-0.346c-0.504,-0.121 -0.917,-0.28 -0.917,-0.353c0,-0.073 -0.262,-0.181 -0.583,-0.242c-0.321,-0.06 -0.583,-0.172 -0.583,-0.25c0,-0.077 -0.263,-0.189 -0.584,-0.25c-0.321,-0.06 -0.583,-0.168 -0.583,-0.241c0,-0.072 -0.375,-0.221 -0.833,-0.331c-0.459,-0.11 -0.834,-0.267 -0.834,-0.35c0,-0.082 -0.116,-0.15 -0.259,-0.15c-0.142,0 -0.592,-0.152 -1,-0.338c-0.407,-0.185 -0.984,-0.386 -1.282,-0.445c-0.297,-0.06 -0.64,-0.208 -0.761,-0.329c-0.122,-0.122 -0.397,-0.221 -0.612,-0.221c-0.215,0 -0.416,-0.074 -0.447,-0.163c-0.03,-0.09 -0.299,-0.212 -0.597,-0.271l-0.542,-0.108l0,25.783m50.5,-0.021l0,25.765l0.584,0.109c0.32,0.06 0.583,0.17 0.583,0.244c0,0.074 0.225,0.185 0.5,0.245c0.275,0.06 0.5,0.171 0.5,0.245c0,0.074 0.262,0.184 0.583,0.244c0.321,0.06 0.584,0.167 0.584,0.237c0,0.07 0.375,0.224 0.833,0.341c0.458,0.118 0.833,0.274 0.833,0.347c0,0.073 0.263,0.181 0.584,0.242c0.32,0.06 0.583,0.167 0.583,0.237c0,0.07 0.375,0.223 0.833,0.341c0.459,0.117 0.834,0.273 0.834,0.346c0,0.073 0.262,0.182 0.583,0.242c0.321,0.061 0.583,0.178 0.583,0.261c0,0.084 0.263,0.201 0.584,0.261c0.32,0.061 0.583,0.169 0.583,0.241c0,0.073 0.375,0.222 0.833,0.332c0.459,0.11 0.834,0.264 0.834,0.342c0,0.078 0.262,0.192 0.583,0.252c0.321,0.06 0.583,0.169 0.583,0.241c0,0.072 0.375,0.221 0.834,0.331c0.458,0.11 0.833,0.264 0.833,0.343c0,0.078 0.262,0.191 0.583,0.252c0.321,0.06 0.584,0.172 0.584,0.25c0,0.077 0.262,0.189 0.583,0.25c0.321,0.06 0.583,0.169 0.583,0.242c0,0.073 0.375,0.229 0.834,0.346c0.458,0.118 0.833,0.269 0.833,0.336c0,0.067 0.244,0.174 0.542,0.239c0.298,0.065 0.587,0.189 0.642,0.276c0.056,0.087 0.412,0.2 0.792,0.251l0.691,0.093l0,-25.69l0,-25.689l-0.75,-0.201c-0.413,-0.11 -0.75,-0.254 -0.75,-0.319c0,-0.065 -0.225,-0.168 -0.5,-0.229c-0.275,-0.06 -0.5,-0.17 -0.5,-0.244c0,-0.075 -0.263,-0.184 -0.584,-0.245c-0.321,-0.06 -0.583,-0.173 -0.583,-0.252c0,-0.078 -0.375,-0.232 -0.833,-0.342c-0.459,-0.11 -0.834,-0.264 -0.834,-0.342c0,-0.079 -0.262,-0.192 -0.583,-0.252c-0.321,-0.061 -0.583,-0.173 -0.583,-0.25c0,-0.078 -0.263,-0.19 -0.584,-0.25c-0.321,-0.061 -0.583,-0.169 -0.583,-0.242c0,-0.073 -0.375,-0.229 -0.833,-0.347c-0.459,-0.117 -0.834,-0.268 -0.834,-0.335c0,-0.067 -0.225,-0.172 -0.5,-0.232c-0.275,-0.06 -0.5,-0.179 -0.5,-0.263c0,-0.085 -0.134,-0.154 -0.298,-0.154c-0.164,0 -0.584,-0.145 -0.933,-0.323c-0.349,-0.178 -0.852,-0.372 -1.118,-0.43c-0.266,-0.059 -0.484,-0.172 -0.484,-0.252c0,-0.081 -0.263,-0.195 -0.583,-0.256c-0.321,-0.06 -0.584,-0.161 -0.584,-0.224c0,-0.127 -0.989,-0.515 -1.315,-0.515c-0.115,0 -0.321,-0.112 -0.458,-0.25c-0.138,-0.137 -0.433,-0.25 -0.655,-0.25c-0.223,0 -0.405,-0.06 -0.405,-0.133c0,-0.156 -0.981,-0.533 -1.387,-0.533c-0.154,0 -0.28,-0.061 -0.28,-0.135c0,-0.187 -1.2,-0.698 -1.911,-0.813l-0.589,-0.096l0,25.764" id="path0"/>
   <path fill-rule="evenodd" fill="#005555" id="path1"/>
   <path fill-rule="evenodd" fill="#339999" id="path2"/>
   <path fill-rule="evenodd" fill="#58c5c2" d="m75.417,11.955c-0.184,0.044 -0.648,0.222 -1.033,0.396c-0.384,0.174 -0.797,0.318 -0.917,0.321c-0.119,0.003 -0.517,0.151 -0.884,0.328c-0.366,0.177 -0.798,0.325 -0.958,0.328c-0.16,0.003 -0.292,0.072 -0.292,0.153c0,0.082 -0.277,0.201 -0.616,0.264c-0.339,0.064 -0.768,0.222 -0.954,0.352c-0.185,0.13 -0.437,0.236 -0.559,0.236c-0.122,0 -0.574,0.154 -1.005,0.343c-0.43,0.188 -0.932,0.407 -1.116,0.485c-0.183,0.079 -0.933,0.35 -1.666,0.603c-0.734,0.252 -1.409,0.513 -1.5,0.578c-0.092,0.066 -0.411,0.172 -0.709,0.235c-0.298,0.064 -0.541,0.185 -0.541,0.27c0,0.084 -0.119,0.153 -0.264,0.153c-0.221,0 -1.274,0.37 -2.82,0.991c-0.183,0.074 -0.543,0.219 -0.801,0.322c-0.691,0.278 0.083,0.896 1.599,1.276c0.249,0.063 0.452,0.172 0.452,0.244c0,0.071 0.263,0.179 0.584,0.239c0.32,0.061 0.583,0.181 0.583,0.269c0,0.087 0.131,0.161 0.292,0.164c0.16,0.003 0.666,0.19 1.125,0.415c0.458,0.226 0.958,0.411 1.111,0.412c0.153,0.001 0.303,0.058 0.333,0.126c0.031,0.069 0.506,0.305 1.056,0.524c0.55,0.22 1.314,0.539 1.699,0.709c0.384,0.17 0.778,0.309 0.875,0.309c0.097,0 0.176,0.075 0.176,0.167c0,0.091 0.126,0.166 0.28,0.166c0.155,0 0.624,0.155 1.042,0.344c0.419,0.189 1.023,0.458 1.344,0.598c0.321,0.139 0.846,0.388 1.167,0.552c0.321,0.164 0.827,0.351 1.125,0.415c0.298,0.065 0.542,0.179 0.542,0.253c0,0.074 0.262,0.184 0.583,0.244c0.321,0.06 0.583,0.186 0.583,0.28c0,0.094 0.169,0.147 0.375,0.118l0.375,-0.054l0,-7.069c0,-4.578 -0.058,-7.082 -0.166,-7.105c-0.092,-0.019 -0.317,0.001 -0.5,0.046m-50.697,0.763c-0.291,0.109 -0.585,0.255 -0.652,0.324c-0.068,0.068 -0.242,0.125 -0.387,0.126c-0.146,0 -0.452,0.098 -0.681,0.217c-0.229,0.119 -0.775,0.317 -1.213,0.439c-0.437,0.122 -0.836,0.286 -0.884,0.366c-0.049,0.079 -0.254,0.146 -0.455,0.149c-0.2,0.003 -0.665,0.151 -1.031,0.328c-0.367,0.177 -0.798,0.324 -0.959,0.327c-0.16,0.003 -0.291,0.081 -0.291,0.173c0,0.091 -0.112,0.166 -0.249,0.166c-0.334,0 -2.793,0.84 -2.993,1.022c-0.087,0.08 -0.275,0.148 -0.417,0.151c-0.142,0.003 -0.558,0.15 -0.925,0.327c-0.366,0.177 -0.802,0.325 -0.967,0.328c-0.278,0.005 -1.498,0.481 -2.137,0.833c-0.149,0.083 -0.524,0.198 -0.833,0.256c-1.321,0.251 -1.469,0.885 -0.288,1.236c0.399,0.118 0.8,0.274 0.892,0.345c0.092,0.072 0.41,0.183 0.708,0.246c0.298,0.064 0.542,0.185 0.542,0.27c0,0.084 0.134,0.153 0.298,0.153c0.164,0 0.592,0.15 0.952,0.333c0.36,0.184 0.72,0.334 0.802,0.334c0.081,0 0.384,0.103 0.673,0.228c2.062,0.898 2.609,1.105 2.921,1.105c0.195,0 0.354,0.067 0.354,0.149c0,0.081 0.206,0.196 0.458,0.255c0.426,0.1 1.014,0.345 2.042,0.852c0.229,0.113 0.66,0.258 0.958,0.321c0.298,0.064 0.542,0.185 0.542,0.27c0,0.084 0.117,0.153 0.259,0.153c0.143,0 0.577,0.145 0.964,0.321c0.388,0.177 0.928,0.376 1.199,0.442c0.272,0.067 0.542,0.195 0.601,0.284c0.058,0.089 0.396,0.171 0.75,0.182l0.644,0.021l0,-6.583c0,-7.383 0.084,-6.93 -1.197,-6.449m25.544,8.76c-0.056,0.09 -0.325,0.212 -0.599,0.272c-0.274,0.061 -0.818,0.28 -1.208,0.487c-0.39,0.207 -0.997,0.472 -1.349,0.588c-0.352,0.116 -0.839,0.315 -1.082,0.442c-0.244,0.127 -0.536,0.231 -0.651,0.232c-0.115,0.001 -0.208,0.076 -0.208,0.168c0,0.091 -0.134,0.166 -0.298,0.166c-0.164,0 -0.584,0.146 -0.933,0.324c-0.35,0.178 -0.853,0.371 -1.119,0.43c-0.266,0.058 -0.484,0.175 -0.484,0.26c0,0.084 -0.093,0.153 -0.208,0.154c-0.115,0.001 -0.407,0.105 -0.651,0.232c-0.243,0.127 -0.73,0.326 -1.082,0.442c-0.352,0.116 -0.971,0.387 -1.374,0.601c-0.404,0.215 -0.812,0.391 -0.907,0.391c-0.095,0 -0.496,0.15 -0.892,0.333c-0.733,0.34 -2.034,0.917 -2.636,1.17c-2.415,1.015 -3.696,1.572 -3.833,1.668c-0.092,0.064 -0.373,0.165 -0.625,0.226l-0.458,0.109l0,25.747l0,25.747l0.432,0c0.238,0 0.632,-0.101 0.875,-0.225c0.748,-0.38 1.541,-0.728 3.276,-1.441c0.917,-0.376 1.817,-0.751 2,-0.833c1.065,-0.475 2.866,-1.224 3.391,-1.411c0.565,-0.201 1.619,-0.662 3.294,-1.439c0.377,-0.175 0.74,-0.318 0.808,-0.318c0.068,0 0.36,-0.107 0.648,-0.238c1.371,-0.619 2.476,-1.091 3.776,-1.611c0.779,-0.312 1.454,-0.614 1.5,-0.672c0.045,-0.057 0.327,-0.157 0.625,-0.221c0.363,-0.079 0.57,-0.237 0.629,-0.48c0.265,-1.102 -0.009,-51.358 -0.28,-51.41c-0.152,-0.029 -0.322,0.02 -0.377,0.11m50.236,0.503c0,0.082 -0.263,0.198 -0.583,0.258c-0.321,0.06 -0.584,0.166 -0.584,0.234c0,0.069 -0.281,0.209 -0.625,0.311c-1.005,0.3 -2.284,0.79 -2.376,0.911c-0.047,0.062 -0.31,0.167 -0.584,0.234c-0.274,0.067 -0.759,0.261 -1.079,0.43c-0.319,0.169 -0.713,0.308 -0.875,0.308c-0.162,0 -0.294,0.075 -0.294,0.166c0,0.092 -0.131,0.17 -0.292,0.173c-0.16,0.003 -0.591,0.15 -0.958,0.327c-0.367,0.177 -0.758,0.325 -0.87,0.328c-0.178,0.005 -1.05,0.392 -1.919,0.852c-0.16,0.085 -0.37,0.154 -0.468,0.154c-0.196,0 -1.476,0.531 -2.215,0.919c-0.259,0.136 -0.548,0.247 -0.641,0.247c-0.094,0 -0.406,0.108 -0.695,0.24c-0.289,0.132 -1.013,0.435 -1.609,0.674c-0.596,0.239 -1.233,0.502 -1.416,0.585c-1.169,0.526 -1.876,0.807 -2.167,0.861c-0.332,0.061 -0.333,0.193 -0.333,25.726l0,25.664l0.66,-0.022c0.363,-0.012 0.688,-0.106 0.722,-0.208c0.034,-0.103 0.176,-0.186 0.314,-0.186c0.139,0 0.451,-0.105 0.695,-0.234c0.375,-0.198 1.668,-0.749 2.942,-1.255c0.183,-0.073 0.679,-0.293 1.102,-0.489c0.422,-0.195 0.809,-0.356 0.86,-0.356c0.05,0 0.652,-0.262 1.337,-0.583c0.685,-0.321 1.299,-0.583 1.365,-0.583c0.113,0 0.739,-0.256 1.836,-0.75c0.534,-0.241 1.031,-0.454 2.75,-1.177c0.596,-0.251 1.552,-0.67 2.125,-0.931c0.574,-0.262 1.099,-0.478 1.167,-0.481c0.069,-0.003 0.425,-0.151 0.791,-0.328c0.367,-0.177 0.761,-0.325 0.875,-0.328c0.115,-0.003 0.209,-0.072 0.209,-0.153c0,-0.082 0.249,-0.195 0.554,-0.253c0.305,-0.057 0.717,-0.255 0.916,-0.441l0.363,-0.338l0,-25.063c0,-13.785 -0.046,-25.182 -0.101,-25.327c-0.105,-0.274 -0.899,-0.376 -0.899,-0.116m170.303,19.772c-0.038,0.037 -0.923,0.148 -1.968,0.247c-1.044,0.098 -1.978,0.244 -2.075,0.324c-0.097,0.08 -0.534,0.198 -0.97,0.263c-0.437,0.065 -0.83,0.177 -0.875,0.249c-0.044,0.072 -0.456,0.221 -0.914,0.331c-0.459,0.11 -0.834,0.259 -0.834,0.331c0,0.072 -0.263,0.181 -0.584,0.241c-0.321,0.06 -0.583,0.175 -0.583,0.255c0,0.081 -0.225,0.196 -0.5,0.256c-0.275,0.06 -0.5,0.17 -0.5,0.243c0,0.073 -0.244,0.233 -0.542,0.355c-0.298,0.122 -0.632,0.299 -0.744,0.395c-0.269,0.23 -0.502,0.411 -1.297,1.004c-0.875,0.651 -2.721,2.494 -3.342,3.336c-0.27,0.367 -0.567,0.758 -0.658,0.87c-0.594,0.721 -0.935,1.312 -1.76,3.047c-0.37,0.779 -0.738,1.536 -0.817,1.683c-0.08,0.146 -0.243,0.69 -0.363,1.208c-0.121,0.518 -0.269,0.942 -0.329,0.942c-0.06,0 -0.163,0.507 -0.228,1.125c-0.066,0.619 -0.201,1.225 -0.301,1.347c-0.244,0.298 -0.25,7.082 -0.007,7.39c0.097,0.122 0.226,0.669 0.288,1.215c0.061,0.547 0.167,1.034 0.235,1.084c0.068,0.049 0.216,0.539 0.328,1.089c0.112,0.55 0.279,1.025 0.37,1.056c0.092,0.03 0.167,0.171 0.167,0.313c0,1.922 4.944,8.202 7.667,9.738c0.32,0.181 1.033,0.586 1.583,0.899c0.55,0.313 1.188,0.646 1.417,0.74c0.229,0.094 0.531,0.237 0.672,0.317c0.14,0.08 0.502,0.199 0.803,0.265c0.301,0.066 0.748,0.225 0.994,0.354c0.246,0.128 0.586,0.233 0.755,0.234c0.169,0.001 0.732,0.131 1.25,0.289c1.156,0.354 8.064,0.41 9.401,0.076c0.435,-0.108 1.144,-0.273 1.576,-0.365c0.432,-0.093 0.859,-0.243 0.95,-0.334c0.091,-0.091 0.27,-0.165 0.398,-0.165c0.335,0 3.958,-1.659 4.451,-2.038c0.091,-0.07 0.729,-0.552 1.416,-1.071c1.327,-1.001 3,-2.613 3,-2.891c0,-0.092 0.064,-0.167 0.143,-0.167c0.078,0 0.468,-0.468 0.866,-1.041c0.398,-0.573 0.77,-1.08 0.826,-1.125c0.203,-0.167 1.999,-3.893 2,-4.151c0,-0.146 0.116,-0.488 0.258,-0.759c0.141,-0.27 0.302,-0.833 0.358,-1.25c0.055,-0.416 0.16,-0.796 0.233,-0.845c0.313,-0.207 0.816,-6.995 0.518,-6.995c-0.084,0 -0.196,-0.681 -0.25,-1.513c-0.054,-0.832 -0.169,-1.6 -0.256,-1.708c-0.087,-0.108 -0.21,-0.58 -0.273,-1.049c-0.063,-0.469 -0.221,-1.059 -0.352,-1.311c-0.131,-0.252 -0.24,-0.543 -0.243,-0.647c-0.003,-0.104 -0.151,-0.489 -0.328,-0.856c-0.177,-0.366 -0.324,-0.76 -0.327,-0.875c-0.003,-0.114 -0.081,-0.208 -0.173,-0.208c-0.091,0 -0.166,-0.087 -0.166,-0.194c0,-0.279 -1.437,-2.689 -1.904,-3.193c-0.217,-0.234 -0.423,-0.508 -0.456,-0.608c-0.098,-0.296 -3.016,-3.178 -3.515,-3.473c-0.252,-0.149 -0.459,-0.329 -0.459,-0.401c0,-0.072 -0.071,-0.131 -0.158,-0.131c-0.087,0 -0.481,-0.216 -0.875,-0.481c-0.879,-0.59 -3.369,-1.787 -4.05,-1.947c-0.275,-0.065 -0.575,-0.176 -0.667,-0.246c-0.091,-0.07 -0.541,-0.183 -1,-0.25c-0.458,-0.067 -0.871,-0.179 -0.916,-0.249c-0.16,-0.243 -6.155,-0.784 -6.364,-0.574m-150.97,21.811l0,20.564l0.375,0.1c0.492,0.132 27.019,0.136 27.362,0.004c0.225,-0.086 0.263,-0.496 0.263,-2.833l0,-2.732l-11,0l-11,0l0,-6.417l0,-6.417l9.667,0l9.667,0l0,-2.833l0,-2.833l-9.667,0l-9.667,0l0,-5.832l0,-5.832l10.459,-0.043l10.458,-0.043l0.046,-2.709l0.046,-2.708l-13.505,0l-13.504,0l0,20.564m31.834,-20.479c0,0.047 0.275,0.478 0.611,0.958c0.337,0.481 0.768,1.099 0.959,1.374c0.19,0.275 0.44,0.56 0.555,0.633c0.114,0.073 0.208,0.211 0.208,0.307c0,0.096 0.131,0.346 0.292,0.556c0.16,0.21 0.404,0.553 0.541,0.762c0.138,0.209 0.382,0.518 0.542,0.686c0.16,0.168 0.292,0.344 0.292,0.391c0,0.046 0.275,0.478 0.611,0.958c0.337,0.48 0.768,1.098 0.959,1.373c0.19,0.275 0.44,0.56 0.555,0.634c0.114,0.073 0.208,0.242 0.208,0.375c0,0.133 0.07,0.241 0.155,0.241c0.086,0 0.201,0.141 0.255,0.314c0.055,0.172 0.246,0.491 0.425,0.708c0.477,0.579 0.534,0.657 1.081,1.478c0.275,0.413 0.594,0.81 0.709,0.884c0.114,0.073 0.208,0.242 0.208,0.375c0,0.133 0.066,0.241 0.147,0.241c0.08,0 0.239,0.225 0.353,0.5c0.114,0.275 0.255,0.501 0.312,0.501c0.058,0.001 0.292,0.282 0.52,0.625c0.229,0.344 0.459,0.662 0.513,0.708c0.054,0.045 0.448,0.608 0.874,1.25c0.427,0.641 0.879,1.279 1.004,1.416c0.835,0.915 0.843,1.058 0.116,2.107c-0.371,0.537 -0.768,1.117 -0.882,1.288c-0.114,0.171 -0.338,0.482 -0.498,0.693c-0.161,0.21 -0.292,0.46 -0.292,0.555c0,0.096 -0.094,0.234 -0.208,0.307c-0.224,0.144 -0.959,1.14 -0.959,1.301c0,0.053 -0.074,0.187 -0.164,0.298c-0.729,0.894 -1.002,1.265 -1.002,1.36c0,0.061 -0.244,0.436 -0.542,0.832c-0.298,0.397 -0.654,0.891 -0.792,1.098c-0.137,0.208 -0.475,0.686 -0.75,1.063c-0.275,0.377 -0.809,1.135 -1.186,1.683c-0.378,0.549 -1.015,1.471 -1.417,2.049c-0.401,0.577 -0.805,1.177 -0.897,1.333c-0.091,0.156 -0.204,0.321 -0.25,0.367c-0.089,0.089 -1.041,1.474 -2.405,3.5c-0.463,0.687 -0.884,1.287 -0.935,1.333c-0.319,0.283 -0.843,1.384 -0.761,1.597c0.132,0.344 7.113,0.288 7.228,-0.058c0.038,-0.117 0.176,-0.317 0.305,-0.447c0.129,-0.129 0.235,-0.283 0.235,-0.341c0,-0.059 0.188,-0.352 0.417,-0.653c0.229,-0.3 0.416,-0.601 0.416,-0.667c0,-0.067 0.094,-0.219 0.209,-0.339c0.114,-0.12 0.302,-0.358 0.417,-0.53c1.581,-2.363 2.198,-3.344 2.202,-3.503c0.003,-0.104 0.118,-0.233 0.256,-0.286c0.137,-0.053 0.25,-0.179 0.25,-0.28c0,-0.101 0.093,-0.288 0.208,-0.416c0.408,-0.454 0.557,-0.671 1.032,-1.494c0.264,-0.458 0.525,-0.871 0.579,-0.916c0.145,-0.124 1.514,-2.164 1.514,-2.257c0,-0.044 0.262,-0.454 0.583,-0.91c0.321,-0.456 0.584,-0.906 0.584,-0.998c0,-0.093 0.056,-0.169 0.125,-0.169c0.068,0 0.346,-0.356 0.617,-0.792c0.272,-0.435 0.538,-0.829 0.593,-0.874c0.054,-0.046 0.27,-0.365 0.479,-0.709c0.479,-0.789 0.501,-0.786 1.097,0.167c0.273,0.436 0.573,0.876 0.667,0.98c0.094,0.103 0.264,0.328 0.377,0.5c0.113,0.171 0.394,0.596 0.625,0.944c0.231,0.348 0.42,0.67 0.42,0.715c0,0.046 0.077,0.174 0.173,0.285c0.314,0.366 1.993,2.986 1.993,3.11c0,0.068 0.15,0.258 0.334,0.424c0.183,0.166 0.333,0.371 0.333,0.455c0,0.084 0.094,0.25 0.208,0.37c0.115,0.12 0.301,0.358 0.415,0.53c0.113,0.172 0.619,0.936 1.125,1.698c0.505,0.762 0.919,1.421 0.919,1.465c0,0.082 0.682,1.085 0.838,1.232c0.049,0.046 0.554,0.796 1.123,1.667c0.569,0.871 1.151,1.733 1.293,1.917c0.284,0.368 7.046,0.607 7.564,0.268c0.288,-0.189 0.043,-0.889 -0.533,-1.527c-0.203,-0.224 -0.645,-0.821 -0.982,-1.325c-0.337,-0.504 -1.145,-1.666 -1.795,-2.583c-0.65,-0.917 -1.231,-1.779 -1.291,-1.917c-0.06,-0.137 -0.208,-0.31 -0.33,-0.383c-0.121,-0.073 -0.221,-0.242 -0.221,-0.375c0,-0.133 -0.066,-0.242 -0.146,-0.242c-0.081,0 -0.238,-0.219 -0.349,-0.488c-0.111,-0.268 -0.307,-0.528 -0.437,-0.578c-0.129,-0.049 -0.234,-0.205 -0.234,-0.345c0,-0.14 -0.057,-0.257 -0.125,-0.258c-0.069,-0.002 -0.35,-0.376 -0.625,-0.831c-0.275,-0.455 -0.557,-0.828 -0.625,-0.83c-0.069,-0.002 -0.125,-0.112 -0.125,-0.245c0,-0.133 -0.095,-0.301 -0.21,-0.375c-0.116,-0.073 -0.427,-0.467 -0.691,-0.874c-0.264,-0.408 -0.549,-0.82 -0.632,-0.917c-0.083,-0.096 -0.453,-0.644 -0.822,-1.217c-0.369,-0.573 -0.741,-1.042 -0.825,-1.042c-0.085,0 -0.154,-0.099 -0.154,-0.22c0,-0.178 -0.808,-1.395 -1.458,-2.196c-0.075,-0.092 -0.299,-0.433 -0.498,-0.758c-0.323,-0.527 -0.603,-0.899 -1.228,-1.633c-0.26,-0.304 -0.24,-0.954 0.039,-1.261c0.395,-0.437 0.551,-0.646 1.498,-2.015c1.391,-2.009 2.77,-3.96 3.058,-4.326c0.141,-0.179 0.256,-0.422 0.256,-0.541c0,-0.119 0.064,-0.216 0.143,-0.216c0.079,0 0.41,-0.394 0.737,-0.875c0.327,-0.482 0.9,-1.307 1.274,-1.835c0.374,-0.528 0.679,-1.028 0.679,-1.112c0,-0.083 0.061,-0.176 0.136,-0.206c0.203,-0.084 1.531,-1.932 1.531,-2.132c0,-0.095 0.056,-0.177 0.125,-0.181c0.069,-0.004 0.463,-0.495 0.875,-1.091c0.412,-0.596 1.219,-1.735 1.792,-2.531c0.573,-0.796 1.041,-1.505 1.041,-1.576c0,-0.232 -7.332,-0.154 -7.555,0.08c-0.109,0.115 -0.534,0.734 -0.945,1.375c-0.41,0.642 -0.84,1.266 -0.956,1.387c-0.116,0.121 -0.21,0.285 -0.21,0.363c0,0.079 -0.094,0.244 -0.209,0.368c-0.391,0.422 -0.958,1.285 -0.958,1.459c0,0.095 -0.07,0.173 -0.155,0.173c-0.086,0 -0.201,0.141 -0.255,0.314c-0.055,0.172 -0.229,0.468 -0.387,0.658c-0.234,0.281 -1.768,2.571 -2.453,3.661c-0.092,0.146 -0.298,0.415 -0.458,0.598c-0.161,0.183 -0.292,0.431 -0.292,0.551c0,0.12 -0.058,0.218 -0.129,0.218c-0.071,0 -0.268,0.259 -0.439,0.576c-0.17,0.317 -0.432,0.71 -0.581,0.875c-0.149,0.165 -0.571,0.767 -0.936,1.34c-0.744,1.164 -0.842,1.219 -1.112,0.626c-0.104,-0.229 -0.253,-0.417 -0.33,-0.417c-0.077,0 -0.14,-0.115 -0.14,-0.255c0,-0.14 -0.112,-0.298 -0.25,-0.351c-0.137,-0.053 -0.25,-0.158 -0.25,-0.235c0,-0.076 -0.468,-0.821 -1.041,-1.656c-0.573,-0.834 -1.117,-1.645 -1.209,-1.801c-0.268,-0.459 -1.477,-2.267 -1.663,-2.488c-0.093,-0.111 -0.264,-0.314 -0.378,-0.451c-0.115,-0.137 -0.209,-0.293 -0.209,-0.347c0,-0.092 -1.316,-2.065 -1.5,-2.249c-0.244,-0.244 -0.833,-1.176 -0.833,-1.318c0,-0.091 -0.095,-0.225 -0.212,-0.299c-0.116,-0.073 -0.302,-0.339 -0.413,-0.591c-0.111,-0.252 -0.278,-0.459 -0.371,-0.459c-0.094,0 -0.171,-0.115 -0.171,-0.255c0,-0.14 -0.112,-0.298 -0.25,-0.351c-0.137,-0.053 -0.25,-0.189 -0.25,-0.303c0,-0.841 -0.395,-0.924 -4.394,-0.924c-2.075,0 -3.772,0.038 -3.772,0.085m41.207,20.531l0.043,20.634l2.833,0l2.833,0l0.043,-9.125l0.044,-9.125l5.736,0c5.303,0 8.213,-0.169 8.426,-0.489c0.047,-0.069 0.31,-0.179 0.585,-0.243c1.726,-0.401 5.583,-3.337 5.583,-4.25c0,-0.101 0.075,-0.185 0.167,-0.185c0.091,0 0.166,-0.095 0.166,-0.21c0,-0.116 0.145,-0.481 0.322,-0.811c0.177,-0.33 0.374,-0.892 0.438,-1.248c0.065,-0.356 0.201,-0.753 0.304,-0.881c0.122,-0.153 0.186,-1.258 0.186,-3.183c0,-1.925 -0.064,-3.03 -0.186,-3.183c-0.103,-0.128 -0.237,-0.512 -0.298,-0.852c-0.163,-0.903 -0.936,-2.493 -1.475,-3.032c-0.16,-0.159 -0.291,-0.397 -0.291,-0.528c0,-0.131 -0.056,-0.241 -0.125,-0.244c-0.068,-0.003 -0.53,-0.371 -1.025,-0.818c-0.975,-0.88 -2.635,-1.787 -4.35,-2.377c-1.063,-0.367 -1.255,-0.374 -10.542,-0.429l-9.459,-0.055l0.042,20.634m32.626,-0.052l0,20.564l0.375,0.1c0.776,0.208 24.047,0.117 24.258,-0.095c0.139,-0.138 0.2,-1.007 0.2,-2.833l0,-2.633l-9.5,0l-9.5,0l0,-17.834l0,-17.833l-2.916,0l-2.917,0l0,20.564m73.333,-0.01l0,20.574l0.375,0.1c0.207,0.056 1.519,0.102 2.917,0.103l2.542,0.002l0,-9.166l0,-9.167l2.958,0.001l2.958,0.001l0.312,0.541c0.172,0.297 0.468,0.84 0.658,1.207c0.19,0.367 0.393,0.704 0.45,0.75c0.058,0.046 0.322,0.515 0.586,1.042c0.264,0.527 0.534,0.958 0.599,0.958c0.065,0 0.168,0.225 0.229,0.5c0.06,0.275 0.17,0.5 0.243,0.5c0.073,0 0.342,0.412 0.597,0.917c0.255,0.504 0.519,0.916 0.586,0.916c0.066,0 0.167,0.185 0.224,0.411c0.057,0.226 0.316,0.732 0.577,1.125c0.261,0.393 0.717,1.164 1.014,1.714c0.297,0.55 0.6,1.075 0.673,1.167c0.145,0.181 0.598,0.977 1.376,2.417c0.273,0.504 0.563,0.941 0.644,0.972c0.082,0.03 0.149,0.139 0.149,0.24c0,0.27 1.348,2.503 1.655,2.741c0.185,0.144 1.246,0.204 3.642,0.208c3.877,0.006 3.883,0.004 3.06,-1.283c-0.496,-0.776 -1.27,-2.024 -1.94,-3.132c-0.184,-0.303 -0.666,-1.101 -1.073,-1.774c-0.406,-0.672 -0.838,-1.321 -0.958,-1.443c-0.121,-0.121 -0.219,-0.283 -0.219,-0.36c0,-0.142 -1.007,-1.753 -1.326,-2.121c-0.096,-0.11 -0.174,-0.243 -0.174,-0.295c0,-0.095 -0.842,-1.433 -0.999,-1.587c-0.099,-0.097 -0.567,-0.904 -0.869,-1.5c-0.117,-0.229 -0.288,-0.507 -0.38,-0.619c-0.39,-0.468 -0.515,-0.656 -0.752,-1.131c-0.137,-0.275 -0.289,-0.537 -0.337,-0.583c-0.048,-0.046 -0.179,-0.271 -0.293,-0.5c-0.113,-0.229 -0.5,-0.867 -0.86,-1.417c-0.826,-1.263 -0.841,-1.186 0.251,-1.299c0.511,-0.053 1.017,-0.167 1.125,-0.254c0.108,-0.087 0.429,-0.208 0.712,-0.268c1.205,-0.257 4.214,-2.611 5.149,-4.027c2.832,-4.293 2.306,-11.125 -1.113,-14.439c-0.784,-0.76 -2.877,-2.129 -3.255,-2.129c-0.102,0 -0.21,-0.057 -0.24,-0.125c-0.031,-0.069 -0.581,-0.311 -1.223,-0.538l-1.166,-0.412l-9.542,-0.056l-9.542,-0.056l0,20.574m34.541,0.071l0.043,20.625l13.916,0l13.917,0l0.046,-2.792l0.045,-2.791l-11.004,0l-11.004,0l0,-6.417l0,-6.417l9.731,0l9.73,0l0.101,-0.375c0.055,-0.206 0.1,-1.312 0.1,-2.458c0,-1.146 -0.045,-2.252 -0.1,-2.458l-0.101,-0.375l-9.73,0l-9.731,0l0,-5.832l0,-5.832l10.459,-0.043l10.458,-0.043l0.046,-2.709l0.046,-2.708l-13.505,0l-13.505,0l0.042,20.625m33.793,-0.061l0,20.564l0.375,0.1c0.491,0.132 5.02,0.135 5.361,0.004c0.236,-0.09 0.264,-1.054 0.264,-9.166l0,-9.066l2.916,0c2.482,0 2.917,0.037 2.917,0.25c0,0.137 0.066,0.25 0.147,0.25c0.081,0 0.189,0.131 0.24,0.292c0.091,0.285 0.615,1.21 0.78,1.375c0.045,0.045 0.184,0.262 0.307,0.481c0.123,0.219 0.378,0.669 0.566,1c0.188,0.331 0.569,1.014 0.845,1.519c0.277,0.504 0.556,0.954 0.62,1c0.064,0.045 0.174,0.271 0.245,0.5c0.071,0.229 0.178,0.454 0.239,0.5c0.181,0.136 2.178,3.626 2.178,3.806c0,0.091 0.066,0.191 0.148,0.221c0.132,0.05 0.937,1.425 1.421,2.43c0.1,0.205 0.237,0.374 0.306,0.375c0.068,0 0.125,0.083 0.125,0.184c0,0.253 1.798,3.314 2.217,3.775c0.332,0.366 0.429,0.375 3.695,0.375c4.202,0 4.066,0.099 2.714,-1.972c-0.159,-0.244 -0.382,-0.632 -0.496,-0.861c-0.114,-0.229 -0.252,-0.454 -0.307,-0.5c-0.055,-0.046 -0.319,-0.477 -0.587,-0.958c-0.267,-0.481 -0.543,-0.875 -0.611,-0.875c-0.069,0 -0.125,-0.098 -0.125,-0.216c0,-0.119 -0.113,-0.363 -0.25,-0.542c-0.498,-0.649 -1.084,-1.594 -1.084,-1.75c0,-0.087 -0.056,-0.159 -0.125,-0.16c-0.068,0 -0.347,-0.412 -0.619,-0.916c-0.272,-0.504 -0.553,-0.916 -0.625,-0.916c-0.072,0 -0.131,-0.101 -0.131,-0.225c0,-0.123 -0.15,-0.397 -0.333,-0.609c-0.183,-0.211 -0.333,-0.451 -0.333,-0.532c0,-0.178 -0.699,-1.195 -0.875,-1.273c-0.069,-0.031 -0.125,-0.139 -0.125,-0.241c0,-0.161 -0.759,-1.387 -1.003,-1.62c-0.048,-0.046 -0.181,-0.271 -0.296,-0.5c-0.114,-0.229 -0.39,-0.717 -0.613,-1.084c-0.223,-0.366 -0.46,-0.779 -0.527,-0.916c-0.066,-0.138 -0.164,-0.288 -0.216,-0.334c-0.105,-0.091 -1.179,-1.825 -1.179,-1.904c0,-0.026 0.469,-0.097 1.042,-0.157c0.573,-0.06 1.067,-0.183 1.097,-0.274c0.031,-0.09 0.181,-0.165 0.334,-0.166c0.43,-0.003 1.94,-0.797 3.006,-1.581c0.554,-0.408 2.188,-2.051 2.188,-2.201c0,-0.091 0.15,-0.301 0.333,-0.467c0.184,-0.166 0.334,-0.396 0.334,-0.512c0,-0.115 0.059,-0.235 0.132,-0.265c0.23,-0.097 0.868,-1.765 0.976,-2.551c0.057,-0.415 0.168,-0.755 0.248,-0.755c0.19,0 0.186,-3.707 -0.004,-4.2c-0.081,-0.211 -0.234,-0.853 -0.34,-1.427c-0.172,-0.932 -0.926,-2.669 -1.461,-3.365c-0.914,-1.188 -2.864,-2.841 -3.352,-2.841c-0.11,0 -0.199,-0.075 -0.199,-0.167c0,-0.092 -0.079,-0.167 -0.176,-0.167c-0.154,0 -1.013,-0.347 -2.074,-0.839c-0.86,-0.398 -3.016,-0.492 -11.375,-0.493l-8.875,-0.001l0,20.564m-93.599,-16.088c0.049,0.078 0.606,0.19 1.24,0.249c0.633,0.059 1.367,0.219 1.63,0.357c0.263,0.137 0.577,0.25 0.696,0.25c2.189,0.011 6.901,4.339 8.437,7.751c0.247,0.55 0.515,1.122 0.595,1.271c0.079,0.15 0.197,0.562 0.261,0.917c0.064,0.355 0.181,0.728 0.26,0.828c0.539,0.683 0.533,7.85 -0.007,8.859c-0.086,0.161 -0.281,0.704 -0.434,1.209c-1.099,3.623 -3.804,6.903 -7.138,8.654c-0.536,0.282 -1.08,0.512 -1.208,0.512c-0.128,0 -0.233,0.069 -0.233,0.152c0,0.084 -0.3,0.203 -0.667,0.265c-0.367,0.062 -0.667,0.171 -0.667,0.243c0,0.611 -8.093,0.601 -8.741,-0.01c-0.087,-0.082 -0.26,-0.15 -0.384,-0.15c-0.242,0 -1.628,-0.571 -2.041,-0.841c-0.138,-0.09 -0.457,-0.245 -0.709,-0.344c-0.252,-0.099 -0.458,-0.23 -0.458,-0.29c0,-0.061 -0.23,-0.212 -0.511,-0.336c-0.717,-0.318 -3.532,-3.162 -3.991,-4.032c-0.118,-0.224 -0.26,-0.444 -0.316,-0.49c-0.056,-0.046 -0.314,-0.533 -0.574,-1.083c-0.259,-0.55 -0.539,-1.131 -0.623,-1.29c-0.083,-0.159 -0.152,-0.384 -0.153,-0.5c0,-0.116 -0.107,-0.415 -0.238,-0.665c-0.13,-0.249 -0.325,-1.037 -0.433,-1.75c-0.108,-0.712 -0.229,-1.445 -0.268,-1.629c-0.327,-1.522 0.098,-6.664 0.606,-7.333c0.07,-0.092 0.18,-0.354 0.244,-0.583c0.158,-0.564 0.817,-2.23 0.922,-2.334c0.047,-0.045 0.458,-0.645 0.913,-1.333c0.779,-1.176 2.583,-3.111 3.418,-3.667c0.207,-0.137 0.536,-0.362 0.732,-0.5c0.195,-0.137 0.73,-0.437 1.189,-0.666c0.458,-0.229 0.87,-0.459 0.916,-0.51c0.204,-0.227 2.494,-0.851 3.449,-0.94c0.578,-0.054 1.051,-0.163 1.051,-0.241c0,-0.186 3.12,-0.186 3.235,0m-65.064,0.863c2.48,0.304 4.273,1.339 5.087,2.939c0.179,0.351 0.401,0.692 0.492,0.758c0.428,0.305 0.195,4.352 -0.308,5.346c-1.428,2.824 -3.339,3.427 -10.9,3.443l-4.208,0.008l0,-6.333l0,-6.333l4.212,0c2.317,0 4.849,0.077 5.625,0.172m106.126,0.008c0.89,0.099 1.656,0.243 1.704,0.32c0.047,0.077 0.31,0.196 0.583,0.265c0.273,0.068 0.596,0.224 0.718,0.346c0.122,0.122 0.317,0.222 0.433,0.222c0.267,0 1.229,1.043 1.77,1.917c0.624,1.01 0.627,5.146 0.004,6.166c-1.584,2.595 -3.144,3.092 -10.05,3.205l-5.125,0.083l0,-6.352l0,-6.352l4.173,0c2.295,0 4.901,0.081 5.79,0.18m68.453,0.004c0.825,0.101 1.538,0.241 1.584,0.312c0.045,0.071 0.327,0.181 0.625,0.246c0.298,0.065 0.541,0.187 0.541,0.271c0,0.084 0.107,0.153 0.237,0.153c0.639,0 2.43,2.195 2.43,2.979c0,0.184 0.075,0.381 0.167,0.438c0.093,0.057 0.166,0.832 0.166,1.75c0,0.918 -0.073,1.693 -0.166,1.75c-0.092,0.057 -0.167,0.231 -0.167,0.387c0,0.701 -1.633,2.863 -2.162,2.863c-0.081,0 -0.255,0.107 -0.386,0.239c-0.746,0.746 -3.347,1.075 -8.577,1.086l-4.208,0.008l0,-6.333l0,-6.333l4.208,0c2.315,0 4.883,0.083 5.708,0.184" id="path3"/>
   <path fill-rule="evenodd" fill="#00ffff" id="path4"/>
  </g>
  <rect id="svg_1" height="29" width="218" y="5.423538" x="114.5" stroke-width="0" stroke="#000" fill="#fff"/>
  <rect id="svg_2" height="1" width="0" y="-81.576462" x="446.5" stroke-width="1.5" stroke="#000" fill="#fff"/>
  <text font-weight="bold" stroke="#000" transform="matrix(1.010382056236267,0,0,1.0099245573438336,-3.219897409901023,10.25015423819259) " xml:space="preserve" text-anchor="start" font-family="Helvetica, Arial, sans-serif" font-size="32" id="svg_3" y="23.374403" x="120.5" stroke-width="0" fill="#6D97AB">JUNCHAINS</text>
 </g>
</svg>